<svg width="18" height="16" viewBox="0 0 18 16" fill="none" xmlns="http://www.w3.org/2000/svg">
<g clip-path="url(#clip0_123_1837)">
<path d="M11.89 0.5H5.66C5.28 0.5 4.97 0.81 4.97 1.19V2.75H2.14C1.23 2.75 0.5 3.49 0.5 4.39V12.89C0.5 13.8 1.24 14.53 2.14 14.53H15.44C16.35 14.53 17.08 13.79 17.08 12.89V4.4C17.08 3.49 16.34 2.76 15.44 2.76H12.61V1.2C12.59 0.81 12.28 0.5 11.89 0.5V0.5Z" stroke="#454545" stroke-linecap="round" stroke-linejoin="round"/>
<path d="M12.0269 8.24C12.0269 10.03 10.5769 11.47 8.78687 11.47C6.99687 11.47 5.54688 10.02 5.54688 8.24C5.54688 6.46 6.99687 5 8.78687 5C10.5769 5 12.0269 6.45 12.0269 8.24Z" stroke="#454545" stroke-linecap="round" stroke-linejoin="round"/>
</g>
<defs>
<clipPath id="clip0_123_1837">
<rect width="17.58" height="15.03" fill="white"/>
</clipPath>
</defs>
</svg>
