<svg width="8" height="9" viewBox="0 0 8 9" fill="none" xmlns="http://www.w3.org/2000/svg">
<g clip-path="url(#clip0_88_1120)">
<path d="M7.20116 4.02433L1.33915 0.605581C0.976656 0.394296 0.523438 0.658615 0.523438 1.08119V7.91869C0.523438 8.34169 0.976656 8.60558 1.33915 8.3943L7.20116 4.97554C7.56366 4.76426 7.56366 4.23562 7.20116 4.02433Z" fill="black"/>
<path d="M1.06857 9C0.885016 9 0.70146 8.95121 0.534286 8.85363C0.199518 8.65846 6.60509e-07 8.30887 6.60509e-07 7.91854V1.08146C-0.000419375 0.691133 0.199518 0.341536 0.533866 0.146372C0.868635 -0.0487908 1.26809 -0.0487908 1.60286 0.146372L7.46488 3.56512C7.79964 3.76029 7.99916 4.10989 7.99916 4.50021C7.99916 4.89054 7.79922 5.24014 7.46488 5.4353L1.60286 8.85363C1.43568 8.95121 1.25213 9 1.06857 9ZM1.06857 1.06152C1.06605 1.06152 1.06311 1.06237 1.05891 1.06491C1.04967 1.07043 1.04967 1.07467 1.04967 1.08146V7.91854C1.04967 7.92533 1.04967 7.92957 1.05891 7.93509C1.06815 7.9406 1.07193 7.93848 1.07781 7.93509L6.93983 4.51633C6.94571 4.51294 6.94907 4.51082 6.94907 4.49979C6.94907 4.48876 6.94571 4.48664 6.93983 4.48324L1.07781 1.06491C1.07445 1.06322 1.07193 1.06152 1.06899 1.06152H1.06857Z" fill="black"/>
</g>
<defs>
<clipPath id="clip0_88_1120">
<rect width="8" height="9" fill="white"/>
</clipPath>
</defs>
</svg>
