<svg width="14" height="14" viewBox="0 0 14 14" fill="none" xmlns="http://www.w3.org/2000/svg">
<rect width="14" height="14" fill="white"/>
<path d="M11.1316 1H2.86838C1.83656 1 1 1.87841 1 2.96183V8.65229C1 9.73572 1.83656 10.6141 2.86838 10.6141H8.7521L10.8229 12.9651C10.9332 13.051 11.0903 12.9685 11.0903 12.8243L11.0951 10.615H11.1316C12.1634 10.615 13 9.73655 13 8.65313V2.96183C13 1.87841 12.1634 1 11.1316 1Z" stroke="#454545" stroke-width="0.6" stroke-miterlimit="10"/>
<path d="M4.82359 6.02217C5.0325 6.02217 5.20186 5.85281 5.20186 5.6439C5.20186 5.43498 5.0325 5.26562 4.82359 5.26562C4.61467 5.26562 4.44531 5.43498 4.44531 5.6439C4.44531 5.85281 4.61467 6.02217 4.82359 6.02217Z" fill="#454545"/>
<path d="M6.86265 6.02217C7.07156 6.02217 7.24092 5.85281 7.24092 5.6439C7.24092 5.43498 7.07156 5.26562 6.86265 5.26562C6.65373 5.26562 6.48438 5.43498 6.48438 5.6439C6.48438 5.85281 6.65373 6.02217 6.86265 6.02217Z" fill="#454545"/>
<path d="M8.90952 6.02217C9.11844 6.02217 9.2878 5.85281 9.2878 5.6439C9.2878 5.43498 9.11844 5.26562 8.90952 5.26562C8.70061 5.26562 8.53125 5.43498 8.53125 5.6439C8.53125 5.85281 8.70061 6.02217 8.90952 6.02217Z" fill="#454545"/>
</svg>
