<svg width="16" height="16" viewBox="0 0 16 16" fill="none" xmlns="http://www.w3.org/2000/svg">
<path d="M11.7723 6.88465L11.7514 14.5C11.7506 14.7761 11.9739 15.0006 12.25 15.0012L14.476 15.0068C14.7521 15.0075 14.9766 14.7842 14.9774 14.5081L14.9983 6.89271C14.999 6.61657 14.7758 6.39215 14.4996 6.39146L12.2736 6.3859C11.9975 6.38521 11.773 6.60851 11.7723 6.88465Z" stroke="#454545" stroke-linecap="round" stroke-linejoin="round"/>
<path d="M9.101 1H6.875C6.59886 1 6.375 1.22386 6.375 1.5V14.5C6.375 14.7761 6.59886 15 6.875 15H9.101C9.37714 15 9.601 14.7761 9.601 14.5V1.5C9.601 1.22386 9.37714 1 9.101 1Z" stroke="#454545" stroke-linecap="round" stroke-linejoin="round"/>
<path d="M3.726 7.46094H1.5C1.22386 7.46094 1 7.68479 1 7.96094V14.4994C1 14.7755 1.22386 14.9994 1.5 14.9994H3.726C4.00214 14.9994 4.226 14.7755 4.226 14.4994V7.96094C4.226 7.6848 4.00214 7.46094 3.726 7.46094Z" stroke="#454545" stroke-linecap="round" stroke-linejoin="round"/>
</svg>
