<svg width="14" height="12" viewBox="0 0 14 12" fill="none" xmlns="http://www.w3.org/2000/svg">
<g clip-path="url(#clip0_43_2976)">
<path d="M6.99937 12L6.70606 11.7639C6.50468 11.6025 1.78986 7.80453 0.656029 6.05313C0.012502 5.05346 -0.171363 3.79797 0.165723 2.6999C0.476542 1.69629 1.19449 0.893408 2.23201 0.381765C2.74859 0.129879 3.2958 0 3.86053 0C5.5372 0 6.45215 1.20039 6.99937 1.653C7.54659 1.20039 8.34771 0 10.1382 0C10.7029 0 11.2502 0.129879 11.7667 0.381765C12.8086 0.893408 13.5222 1.69629 13.833 2.6999C14.1745 3.79797 13.9862 5.04952 13.3383 6.05313C12.2045 7.80453 7.48968 11.6025 7.29268 11.7639L6.99937 12Z" fill="#FC1E68"/>
</g>
<defs>
<clipPath id="clip0_43_2976">
<rect width="14" height="12" fill="white"/>
</clipPath>
</defs>
</svg>
