<svg width="14" height="15" viewBox="0 0 14 15" fill="none" xmlns="http://www.w3.org/2000/svg">
<rect width="14" height="15" fill="white"/>
<path d="M12.9279 10.809C12.9279 10.4336 12.758 10.0958 12.4903 9.87053C12.7992 9.64528 13 9.2806 13 8.87302C13 8.46543 12.7992 8.10075 12.4903 7.87551C12.758 7.6449 12.9228 7.3124 12.9228 6.94235C12.9228 6.2559 12.3514 5.69815 11.6512 5.69815H8.98456C9.05663 5.36564 9.1184 5.07605 9.18533 4.75963C9.22136 4.59338 9.2574 4.41104 9.29859 4.21797C9.44788 3.52079 9.43243 1.38097 8.04247 1.0431C7.69756 0.957297 7.40927 1.0002 7.1879 1.16645C6.77091 1.4775 6.71429 2.13715 6.66281 2.71635C6.64221 2.96304 6.62162 3.19901 6.57529 3.38135C6.26641 4.63628 5.95238 5.37101 4.91763 6.4007C4.89189 6.42215 4.8713 6.4436 4.85071 6.45969C4.79408 6.23981 4.6036 6.07892 4.37709 6.07892H1.27799C1.12355 6.07892 1 6.20763 1 6.36852V13.512C1 13.6729 1.12355 13.8016 1.27799 13.8016H4.38224C4.65508 13.8016 4.84041 13.571 4.84041 13.2867V13.2599C5.37066 13.7319 6.10167 14 6.84299 14H11.5225C12.2227 14 12.7941 13.4423 12.7941 12.7558C12.7941 12.3965 12.6345 12.0693 12.3822 11.8387C12.7117 11.6135 12.9279 11.2381 12.9279 10.8198V10.809Z" stroke="#454545" stroke-width="0.6" stroke-miterlimit="10"/>
<path d="M4.5 6V13.5" stroke="#454545" stroke-width="0.6" stroke-miterlimit="10"/>
</svg>
