<svg width="36" height="36" viewBox="0 0 36 36" fill="none" xmlns="http://www.w3.org/2000/svg">
<rect width="36" height="36" rx="10" fill="url(#paint0_linear_122_2037)" fill-opacity="0.97"/>
<path d="M24.415 25.0464L23.35 17.4634C23.169 16.1244 23.019 14.9115 22.928 14.0045H22.9C22.688 15.0045 22.418 16.0985 22.112 17.1295L19.563 25.0464H15.492L13.221 17.7365C12.8359 16.5299 12.5118 15.3047 12.25 14.0655H12.22C12.158 15.2485 12.036 16.3994 11.855 17.6754L10.916 25.0464H7L9.457 9.27344H14.376L16.953 17.2794C17.2566 18.2578 17.5096 19.2511 17.711 20.2555H17.743C17.9292 19.2681 18.1825 18.2945 18.501 17.3415L21.169 9.27344H26.175L28.575 25.0464H24.415Z" fill="white"/>
<defs>
<linearGradient id="paint0_linear_122_2037" x1="18" y1="0" x2="18" y2="36" gradientUnits="userSpaceOnUse">
<stop stop-color="#1D75F6"/>
<stop offset="0.96875" stop-color="#15A1F8"/>
</linearGradient>
</defs>
</svg>
