<svg width="16" height="19" viewBox="0 0 16 19" fill="none" xmlns="http://www.w3.org/2000/svg">
<path d="M9 0H7V4.0172H9V0Z" fill="black"/>
<path d="M8 4.01641C9.19347 4.01641 10.3381 4.49254 11.182 5.34008C12.0259 6.18763 12.5 7.33715 12.5 8.53576V14.0594H3.5V8.53576C3.50132 7.33756 3.97586 6.18881 4.81949 5.34156C5.66312 4.4943 6.80693 4.01774 8 4.01641ZM8 2.00781C6.27609 2.00781 4.6228 2.69556 3.40381 3.91979C2.18482 5.14402 1.5 6.80444 1.5 8.53576V16.068H14.5V8.53576C14.5 6.80444 13.8152 5.14402 12.5962 3.91979C11.3772 2.69556 9.72391 2.00781 8 2.00781Z" fill="black"/>
<path d="M16 14.0625H0V16.0711H16V14.0625Z" fill="black"/>
<path d="M9 14.0625H7V18.0797H9V14.0625Z" fill="black"/>
</svg>
