<svg width="20" height="20" viewBox="0 0 20 20" fill="none" xmlns="http://www.w3.org/2000/svg">
<path d="M14 0H6C2.68629 0 0 2.68629 0 6V14C0 17.3137 2.68629 20 6 20H14C17.3137 20 20 17.3137 20 14V6C20 2.68629 17.3137 0 14 0Z" fill="white"/>
<path d="M14 0.5H6C2.96243 0.5 0.5 2.96243 0.5 6V14C0.5 17.0376 2.96243 19.5 6 19.5H14C17.0376 19.5 19.5 17.0376 19.5 14V6C19.5 2.96243 17.0376 0.5 14 0.5Z" stroke="#333333"/>
<path d="M10.5 6C10.5 5.72386 10.2761 5.5 10 5.5C9.72386 5.5 9.5 5.72386 9.5 6V14C9.5 14.2761 9.72386 14.5 10 14.5C10.2761 14.5 10.5 14.2761 10.5 14V6Z" fill="#333333"/>
<path d="M14 10.5C14.2761 10.5 14.5 10.2761 14.5 10C14.5 9.72386 14.2761 9.5 14 9.5H6C5.72386 9.5 5.5 9.72386 5.5 10C5.5 10.2761 5.72386 10.5 6 10.5H14Z" fill="#333333"/>
</svg>
