<svg width="21" height="21" viewBox="0 0 21 21" fill="none" xmlns="http://www.w3.org/2000/svg">
<path d="M12.7279 12.727C15.0711 10.3839 15.0711 6.58488 12.7279 4.24173C10.3848 1.89859 6.58579 1.89859 4.24264 4.24173C1.89949 6.58488 1.89949 10.3839 4.24264 12.727C6.58579 15.0702 10.3848 15.0702 12.7279 12.727Z" fill="#EFEFEF"/>
<path d="M12.0207 12.0199C13.9733 10.0673 13.9733 6.90146 12.0207 4.94884C10.068 2.99622 6.90222 2.99622 4.9496 4.94884C2.99697 6.90146 2.99697 10.0673 4.9496 12.0199C6.90222 13.9725 10.068 13.9725 12.0207 12.0199Z" stroke="#CFD0D0" stroke-width="2"/>
<path d="M12.0236 10.6092L10.6094 12.0234L15.5591 16.9732L16.9733 15.559L12.0236 10.6092Z" fill="#CFD0D0"/>
</svg>
