<svg width="23" height="23" viewBox="0 0 23 23" fill="none" xmlns="http://www.w3.org/2000/svg">
<rect width="23" height="23" fill="#207FFD"/>
<path d="M5.34962 11.5613C6.3738 10.212 6.96905 8.65245 7.12661 6.90012H1.75187V5.5771H8.75479C8.74604 7.8639 8.1858 9.9229 7.0916 11.7453C5.99739 13.5678 4.25542 15.066 1.89193 16.2313L1.00781 14.9871C2.88109 14.0496 4.3342 12.9019 5.35838 11.5526L5.34962 11.5613ZM12.6677 9.98423H14.9961V11.3072H12.6677V19H11.0745V4H12.6677V9.98423Z" fill="white"/>
<path d="M17.1787 15.285C17.6864 14.6104 17.9841 13.8306 18.0716 12.9544H15.3842V12.2886H18.8857C18.8857 13.4363 18.6056 14.4614 18.0541 15.3727C17.5026 16.2839 16.636 17.0286 15.4542 17.6157L15.0078 16.9936C15.9445 16.5204 16.671 15.9509 17.1787 15.2763V15.285ZM20.8377 14.4965H22.002V15.1624H20.8377V19.0088H20.0412V11.5H20.8377V14.4965Z" fill="white"/>
</svg>
