<svg width="125" height="17" viewBox="0 0 125 17" fill="none" xmlns="http://www.w3.org/2000/svg">
<path d="M17.415 16.0464L16.35 8.46344C16.169 7.12444 16.019 5.91146 15.928 5.00446H15.9C15.688 6.00446 15.418 7.09846 15.112 8.12946L12.563 16.0464H8.492L6.221 8.73645C5.83588 7.52987 5.5118 6.30466 5.25 5.06546H5.22C5.158 6.24846 5.036 7.39945 4.855 8.67545L3.916 16.0464H0L2.457 0.273438H7.376L9.953 8.27945C10.2566 9.25779 10.5096 10.2511 10.711 11.2555H10.743C10.9292 10.2681 11.1825 9.29447 11.501 8.34146L14.169 0.273438H19.175L21.575 16.0464H17.415Z" fill="#003E85"/>
<path d="M24.7891 16.0464V0.273438H34.4981V3.33344H28.6981V6.49246H34.2211V9.46246H28.6981V12.9204H34.4981V16.0464H24.7891Z" fill="#003E85"/>
<path d="M48.5681 8.06769C48.5681 11.2557 46.5361 12.8627 43.7111 12.8627C43.1233 12.8713 42.5357 12.8406 41.9521 12.7707V3.45767C42.5671 3.39598 43.1849 3.3653 43.8031 3.36569C46.9581 3.36569 48.5681 4.97269 48.5681 8.06769ZM52.7221 7.88669C52.7221 2.36469 49.3221 0.179688 44.1981 0.179688C42.2571 0.179688 39.4651 0.241694 38.0391 0.279694V16.0237C39.4951 16.0847 41.1951 16.1437 43.3191 16.1437C48.6251 16.1377 52.7181 13.6217 52.7181 7.88568L52.7221 7.88669Z" fill="#003E85"/>
<path d="M55.3984 16.0464V0.273438H59.2984V16.0464H55.3984Z" fill="#003E85"/>
<path d="M65.0651 6.46037C64.5732 6.46017 64.0924 6.31415 63.6834 6.04078C63.2745 5.76741 62.9558 5.37894 62.7675 4.92448C62.5793 4.47001 62.53 3.96994 62.6258 3.48747C62.7217 3.00499 62.9584 2.56176 63.3061 2.21379C63.6538 1.86581 64.0969 1.62874 64.5793 1.53248C65.0617 1.43622 65.5618 1.4851 66.0164 1.67298C66.471 1.86086 66.8597 2.17929 67.1334 2.58802C67.4071 2.99676 67.5535 3.47746 67.5541 3.96937C67.5539 4.6296 67.2916 5.26274 66.825 5.72978C66.3583 6.19682 65.7254 6.45957 65.0651 6.46037ZM65.0651 15.0464C64.5732 15.0462 64.0923 14.9001 63.6834 14.6267C63.2744 14.3533 62.9556 13.9648 62.7674 13.5103C62.5792 13.0557 62.53 12.5556 62.6259 12.0731C62.7219 11.5906 62.9587 11.1474 63.3065 10.7994C63.6543 10.4515 64.0974 10.2145 64.5799 10.1184C65.0623 10.0222 65.5625 10.0713 66.0171 10.2593C66.4717 10.4473 66.8603 10.7659 67.1339 11.1748C67.4075 11.5836 67.5537 12.0644 67.5541 12.5564C67.5536 13.2164 67.2912 13.8493 66.8246 14.3161C66.358 14.783 65.7252 15.0456 65.0651 15.0464Z" fill="#A2A4A7"/>
<path d="M77.7498 16.3201C73.0788 16.3201 69.5938 13.6791 69.5938 8.46409C69.5938 3.76409 72.8687 0.00010337 78.4507 0.00010337C80.1904 -0.00602296 81.9204 0.260201 83.5778 0.789105L82.8477 4.1551C81.485 3.57688 80.02 3.27832 78.5397 3.27711C77.8921 3.23719 77.2434 3.3369 76.6376 3.5695C76.0319 3.8021 75.4832 4.16216 75.0287 4.62529C74.5742 5.08841 74.2245 5.64379 74.0033 6.25383C73.7822 6.86386 73.6946 7.51432 73.7467 8.16111C73.7467 11.1951 75.5077 12.8611 78.0827 12.8611C78.7209 12.8687 79.3562 12.7763 79.9657 12.5871V7.64109H83.8807V15.1661C81.9278 15.9329 79.8478 16.3245 77.7498 16.3201Z" fill="#0081CD"/>
<path d="M95.5531 10.4655H91.3071L92.6991 6.64346C92.9741 5.91146 93.2131 5.09245 93.3991 4.39545H93.4291C93.6131 5.09545 93.9161 6.00744 94.1891 6.73444L95.5531 10.4655ZM101.773 16.0464L95.9451 0.273438H91.3061L85.4531 16.0464H89.3961L90.3961 13.2855H96.4961L97.4641 16.0464H101.773Z" fill="#0081CD"/>
<path d="M108.659 3.60745V16.0464H104.743V3.60745H100.617V0.273438H112.783V3.60745H108.659Z" fill="#0081CD"/>
<path d="M114.969 16.0464V0.273438H124.679V3.33344H118.885V6.49246H124.401V9.46246H118.885V12.9204H124.679V16.0464H114.969Z" fill="#0081CD"/>
</svg>
