<?xml version="1.0" standalone="no"?>
<!DOCTYPE svg PUBLIC "-//W3C//DTD SVG 1.1//EN" "http://www.w3.org/Graphics/SVG/1.1/DTD/svg11.dtd" >
<svg xmlns="http://www.w3.org/2000/svg">
<metadata>Generated by IcoMoon</metadata>
<defs>
<font id="icomoon" horiz-adv-x="1024">
<font-face units-per-em="1024" ascent="960" descent="-64" />
<missing-glyph horiz-adv-x="1024" />
<glyph unicode="&#x20;" horiz-adv-x="512" d="" />
<glyph unicode="&#xe900;" glyph-name="arrow-back" horiz-adv-x="1092" d="M579.252 91.15l-482.718 482.717-96.543-96.543 482.718-482.716 96.543 96.543zM1028.799 545.6h-955.733v-136.533h955.733v136.533zM96.482 380.748l482.718 482.718-96.544 96.543-482.718-482.718 96.544-96.543z" />
<glyph unicode="&#xe901;" glyph-name="arrow-left" horiz-adv-x="683" d="M632.32 56.32l-390.827 391.68 390.827 391.68-120.32 120.32-512-512 512-512 120.32 120.32z" />
<glyph unicode="&#xe902;" glyph-name="arrow-right" horiz-adv-x="683" d="M50.347 56.32l390.827 391.68-390.827 391.68 120.32 120.32 512-512-512-512-120.32 120.32z" />
<glyph unicode="&#xe905;" glyph-name="caret-right" horiz-adv-x="910" d="M819.332 502.121l-666.966 388.978c-41.244 24.040-92.81-6.034-92.81-54.114v-777.956c0-48.128 51.566-78.153 92.81-54.114l666.966 388.979c41.244 24.039 41.244 84.186 0 108.227zM121.58-64c-20.884 0-41.769 5.551-60.79 16.654-38.089 22.206-60.79 61.982-60.79 106.392v777.908c-0.048 44.411 22.701 84.187 60.742 106.392 38.089 22.205 83.538 22.205 121.628 0l666.968-388.978c38.088-22.206 60.789-61.983 60.789-106.392 0-44.411-22.749-84.188-60.789-106.392l-666.968-388.93c-19.021-11.102-39.905-16.654-60.79-16.654zM121.58 839.223c-0.287 0-0.621-0.097-1.099-0.386-1.051-0.628-1.051-1.11-1.051-1.883v-777.908c0-0.773 0-1.255 1.051-1.883 1.051-0.627 1.481-0.386 2.15 0l666.968 388.979c0.669 0.386 1.051 0.627 1.051 1.882s-0.382 1.496-1.051 1.883l-666.968 388.93c-0.382 0.192-0.669 0.386-1.004 0.386h-0.048z" />
<glyph unicode="&#xe906;" glyph-name="clear" d="M512 960c282.77 0 512-229.23 512-512s-229.23-512-512-512c-282.77 0-512 229.23-512 512s229.23 512 512 512z" />
<glyph unicode="&#xe907;" d="M512-64c-282.77 0-512 229.23-512 512s229.23 512 512 512c282.77 0 512-229.23 512-512s-229.23-512-512-512z" />
<glyph unicode="&#xe908;" d="M733.21 243.722l-16.839-16.839-420.975 420.975 16.839 16.839 420.975-420.975z" />
<glyph unicode="&#xe909;" d="M312.187 226.978l-16.839 16.839 420.975 420.975 16.839-16.839-420.975-420.975z" />
<glyph unicode="&#xe90a;" d="M0 960h1024v-1024h-1024v1024z" />
<glyph unicode="&#xe90b;" d="M814.197 886.857h-604.396c-75.47 0-136.659-64.249-136.659-143.494v-416.217c0-79.245 61.188-143.492 136.659-143.492h430.352l151.464-171.959c8.068-6.283 19.558-0.249 19.558 10.299l0.351 161.595h2.67c75.469 0 136.66 64.252 136.66 143.497v416.278c0 79.244-61.191 143.494-136.66 143.494z" />
<glyph unicode="&#xe90c;" d="M352.811 519.521c15.28 0 27.668 12.387 27.668 27.668s-12.387 27.668-27.668 27.668c-15.281 0-27.668-12.387-27.668-27.668s12.387-27.668 27.668-27.668z" />
<glyph unicode="&#xe90d;" d="M501.954 519.521c15.28 0 27.668 12.387 27.668 27.668s-12.387 27.668-27.668 27.668c-15.281 0-27.668-12.387-27.668-27.668s12.387-27.668 27.668-27.668z" />
<glyph unicode="&#xe90e;" d="M651.668 519.521c15.281 0 27.668 12.387 27.668 27.668s-12.387 27.668-27.668 27.668c-15.28 0-27.668-12.387-27.668-27.668s12.387-27.668 27.668-27.668z" />
<glyph unicode="&#xe90f;" glyph-name="fullmenu" horiz-adv-x="1170" d="M1170.286 960h-1170.286v-146.286h1170.286v146.286zM731.429 521.143h-731.429v-146.286h731.429v146.286zM1024 82.286h-1024v-146.286h1024v146.286z" />
<glyph unicode="&#xe911;" glyph-name="heart" horiz-adv-x="1170" d="M940.617 860.35c-184.422 91.98-355.52-86.056-355.52-86.056s-171.099 178.348-355.518 86.056c-177.588-88.862-188.516-282.176-109.627-406.272 86.745-135.944 465.145-444.935 465.145-444.935s378.399 308.68 465.146 444.935c78.885 124.096 68.301 317.41-109.627 406.272z" />
<glyph unicode="&#xe912;" glyph-name="heart-full" horiz-adv-x="1195" d="M597.28-64l-25.029 20.147c-17.184 13.773-419.516 337.866-516.269 487.319-54.914 85.305-70.604 192.44-41.839 286.142 26.523 85.641 87.788 154.154 176.323 197.814 44.081 21.494 90.777 32.577 138.967 32.577 143.076 0 221.152-102.433 267.848-141.056 46.696 38.623 115.058 141.056 267.847 141.056 48.188 0 94.891-11.083 138.965-32.577 88.909-43.66 149.803-112.173 176.324-197.814 29.141-93.702 13.073-200.501-42.214-286.142-96.751-149.453-499.082-473.546-515.893-487.319l-25.029-20.147z" />
<glyph unicode="&#xe913;" glyph-name="like" horiz-adv-x="956" d="M0 960h955.733v-1024h-955.733v1024z" />
<glyph unicode="&#xe914;" d="M284.444 960h455.111c157.094 0 284.444-127.35 284.444-284.444v-455.111c0-157.094-127.35-284.444-284.444-284.444h-455.111c-157.094 0-284.444 127.35-284.444 284.444v455.111c0 157.094 127.35 284.444 284.444 284.444z" />
<glyph unicode="&#xe915;" d="M694.471 247.569l-30.293 215.694c-5.148 38.087-9.415 72.587-12.004 98.386h-0.796c-6.030-28.444-13.71-59.563-22.414-88.889l-72.505-225.192h-115.797l-64.597 207.926c-10.954 34.321-20.173 69.171-27.62 104.42h-0.853c-1.764-33.65-5.234-66.386-10.382-102.682l-26.709-209.664h-111.388l69.888 448.653h139.918l73.301-227.725c8.636-27.83 15.832-56.084 21.561-84.654h0.91c5.296 28.086 12.501 55.78 21.561 82.887l75.89 229.491h142.393l68.267-448.653h-118.329z" />
<glyph unicode="&#xe916;" glyph-name="more-horizontal" horiz-adv-x="5120" d="M1024 448c0-282.77-229.23-512-512-512s-512 229.23-512 512c0 282.77 229.23 512 512 512s512-229.23 512-512zM3072 448c0-282.77-229.23-512-512-512s-512 229.23-512 512c0 282.77 229.23 512 512 512s512-229.23 512-512zM5120 448c0-282.77-229.23-512-512-512s-512 229.23-512 512c0 282.77 229.23 512 512 512s512-229.23 512-512z" />
<glyph unicode="&#xe917;" glyph-name="more-vertical" horiz-adv-x="205" d="M204.8 857.6c0-56.554-45.846-102.4-102.4-102.4s-102.4 45.846-102.4 102.4c0 56.554 45.846 102.4 102.4 102.4s102.4-45.846 102.4-102.4zM204.8 448c0-56.554-45.846-102.4-102.4-102.4s-102.4 45.846-102.4 102.4c0 56.554 45.846 102.4 102.4 102.4s102.4-45.846 102.4-102.4zM204.8 38.4c0-56.554-45.846-102.4-102.4-102.4s-102.4 45.846-102.4 102.4c0 56.554 45.846 102.4 102.4 102.4s102.4-45.846 102.4-102.4z" />
<glyph unicode="&#xe918;" glyph-name="notice" horiz-adv-x="1001" d="M523.378 664.178h-45.511v-91.414h45.511v91.414zM500.622 572.782c27.159 0 53.205-10.834 72.408-30.122 19.203-19.285 29.992-45.445 29.992-72.72v-125.693h-204.8v125.693c0.030 27.266 10.829 53.407 30.026 72.686 19.197 19.281 45.224 30.126 72.374 30.156zM500.622 618.489c-39.228 0-76.85-15.651-104.589-43.509s-43.322-65.641-43.322-105.040v-171.399h295.822v171.399c0 39.399-15.583 77.182-43.322 105.040s-65.361 43.509-104.589 43.509zM682.667 344.178h-364.089v-45.707h364.089v45.707zM523.378 344.178h-45.511v-91.414h45.511v91.414z" />
<glyph unicode="&#xe919;" glyph-name="paper" horiz-adv-x="922" d="M614.4 652.8h-409.6v-102.4h409.6v102.4zM614.4 448h-409.6v-102.4h409.6v102.4zM409.6 243.2h-204.8v-102.4h204.8v102.4z" />
<glyph unicode="&#xe91a;" glyph-name="plus" d="M465.455 960h93.091v-1024h-93.091v1024zM1024 494.545v-93.091h-1024v93.091h1024z" />
<glyph unicode="&#xe91b;" horiz-adv-x="977" d="M592.426 343.617c109.065 109.061 109.065 285.887 0 394.949-109.061 109.063-285.887 109.063-394.95 0s-109.063-285.889 0-394.949c109.063-109.065 285.89-109.065 394.95 0z" />
<glyph unicode="&#xe91c;" horiz-adv-x="977" d="M559.509 376.529c90.885 90.885 90.885 238.239 0 329.124-90.889 90.886-238.242 90.886-329.128 0s-90.886-238.24 0-329.124c90.886-90.889 238.238-90.889 329.128 0z" />
<glyph unicode="&#xe91d;" horiz-adv-x="977" d="M559.644 442.191l-65.825-65.829 230.386-230.386 65.825 65.825-230.386 230.391z" />
<glyph unicode="&#xe91e;" d="M716.8 960h-409.6c-169.662 0-307.2-137.538-307.2-307.2v-409.6c0-169.661 137.538-307.2 307.2-307.2h409.6c169.661 0 307.2 137.539 307.2 307.2v409.6c0 169.662-137.539 307.2-307.2 307.2z" />
<glyph unicode="&#xe91f;" d="M716.8 934.4h-409.6c-155.524 0-281.6-126.076-281.6-281.6v-409.6c0-155.525 126.076-281.6 281.6-281.6h409.6c155.525 0 281.6 126.075 281.6 281.6v409.6c0 155.524-126.075 281.6-281.6 281.6z" />
<glyph unicode="&#xe920;" d="M537.6 652.8c0 14.138-11.464 25.6-25.6 25.6-14.138 0-25.6-11.462-25.6-25.6v-409.6c0-14.136 11.462-25.6 25.6-25.6 14.136 0 25.6 11.464 25.6 25.6v409.6z" />
<glyph unicode="&#xe921;" d="M716.8 422.4c14.136 0 25.6 11.464 25.6 25.6 0 14.138-11.464 25.6-25.6 25.6h-409.6c-14.138 0-25.6-11.462-25.6-25.6 0-14.136 11.462-25.6 25.6-25.6h409.6z" />
<glyph unicode="&#xe922;" d="M0 960h1024v-1024h-1024v1024z" />
<glyph unicode="&#xe923;" d="M238.174 445.271c45.598 60.073 72.1 129.507 79.115 207.524h-239.293v58.903h311.782c-0.39-101.812-25.332-193.483-74.048-274.619-48.716-81.141-126.272-147.843-231.498-199.725l-39.363 55.394c83.402 41.739 148.097 92.837 193.695 152.91l-0.39-0.387zM563.988 515.485h103.664v-58.901h-103.664v-342.497h-70.932v667.826h70.932v-266.428z" />
<glyph unicode="&#xe924;" d="M764.826 279.485c22.604 30.034 35.858 64.752 39.753 103.762h-119.648v29.643h155.893c0-51.098-12.471-96.737-37.024-137.309-24.554-40.568-63.136-73.724-115.752-99.862l-19.875 27.697c41.704 21.068 74.049 46.423 96.652 76.457v-0.387zM927.731 314.591h51.837v-29.647h-51.837v-171.248h-35.462v334.305h35.462v-133.409z" />
</font>
</defs>
</svg>
